<svg width="25" height="15" viewBox="0 0 25 15" fill="none" xmlns="http://www.w3.org/2000/svg">
<path fill-rule="evenodd" clip-rule="evenodd" d="M24.1164 1.37622C24.2824 0.830223 24.1164 0.428223 23.3214 0.428223H20.6964C20.0284 0.428223 19.7204 0.775223 19.5534 1.15822C19.5534 1.15822 18.2184 4.35422 16.3274 6.43022C15.7154 7.03222 15.4374 7.22322 15.1034 7.22322C14.9364 7.22322 14.6854 7.03222 14.6854 6.48522V1.37622C14.6854 0.720223 14.5014 0.428223 13.9454 0.428223H9.81738C9.40038 0.428223 9.14938 0.732223 9.14938 1.02122C9.14938 1.64222 10.0954 1.78622 10.1924 3.53422V7.33222C10.1924 8.16522 10.0394 8.31622 9.70538 8.31622C8.81538 8.31622 6.65038 5.10522 5.36538 1.43122C5.11638 0.716222 4.86438 0.428223 4.19338 0.428223H1.56638C0.816382 0.428223 0.666382 0.775223 0.666382 1.15822C0.666382 1.84022 1.55638 5.22822 4.81138 9.70922C6.98138 12.7692 10.0364 14.4282 12.8194 14.4282C14.4884 14.4282 14.6944 14.0602 14.6944 13.4252V11.1122C14.6944 10.3752 14.8524 10.2282 15.3814 10.2282C15.7714 10.2282 16.4384 10.4202 17.9964 11.8952C19.7764 13.6442 20.0694 14.4282 21.0714 14.4282H23.6964C24.4464 14.4282 24.8224 14.0602 24.6064 13.3322C24.3684 12.6082 23.5184 11.5572 22.3914 10.3102C21.7794 9.60022 20.8614 8.83522 20.5824 8.45222C20.1934 7.96122 20.3044 7.74222 20.5824 7.30522C20.5824 7.30522 23.7824 2.87922 24.1154 1.37622H24.1164Z" fill="#83B3D3"/>
</svg>
